<?xml version="1.0" encoding="UTF-8" standalone="no"?>
<!-- Created with Inkscape (http://www.inkscape.org/) -->

<svg
   xmlns:dc="http://purl.org/dc/elements/1.1/"
   xmlns:cc="http://creativecommons.org/ns#"
   xmlns:rdf="http://www.w3.org/1999/02/22-rdf-syntax-ns#"
   xmlns:svg="http://www.w3.org/2000/svg"
   xmlns="http://www.w3.org/2000/svg"
   xmlns:xlink="http://www.w3.org/1999/xlink"
   xmlns:sodipodi="http://sodipodi.sourceforge.net/DTD/sodipodi-0.dtd"
   xmlns:inkscape="http://www.inkscape.org/namespaces/inkscape"
   width="600"
   height="600"
   viewBox="0 0 600 600"
   id="svg2"
   version="1.1"
   inkscape:version="0.48.5 r10040"
   sodipodi:docname="redblack.svg">
  <script
     xlink:href="clock.js"
     id="script3003" />
  <defs
     id="defs4" />
  <sodipodi:namedview
     id="base"
     pagecolor="#ffffff"
     bordercolor="#666666"
     borderopacity="1.0"
     inkscape:pageopacity="0.0"
     inkscape:pageshadow="2"
     inkscape:zoom="1"
     inkscape:cx="-1.7298607"
     inkscape:cy="545.72037"
     inkscape:document-units="px"
     inkscape:current-layer="svg2"
     showgrid="false"
     inkscape:window-width="1366"
     inkscape:window-height="720"
     inkscape:window-x="0"
     inkscape:window-y="0"
     inkscape:window-maximized="1"
     showguides="false"
     inkscape:guide-bbox="true">
    <sodipodi:guide
       orientation="-0.70710678,0.70710678"
       position="0,0"
       id="guide3818" />
    <sodipodi:guide
       orientation="0.70710678,0.70710678"
       position="600,0"
       id="guide3820" />
    <sodipodi:guide
       orientation="0,1"
       position="268.5,350.5"
       id="guide4375" />
    <sodipodi:guide
       orientation="0,1"
       position="273.5,249.5"
       id="guide4377" />
    <sodipodi:guide
       orientation="1,0"
       position="319.61227,298.04551"
       id="guide4407" />
    <sodipodi:guide
       orientation="0,1"
       position="319.61227,319.61227"
       id="guide4409" />
    <sodipodi:guide
       orientation="0,1"
       position="319.61227,280.38773"
       id="guide4411" />
    <sodipodi:guide
       orientation="1,0"
       position="461.38718,280.38773"
       id="guide4413" />
    <sodipodi:guide
       orientation="0,1"
       position="300,300"
       id="guide4415" />
    <sodipodi:guide
       orientation="1,0"
       position="480.47906,280.38773"
       id="guide4417" />
  </sodipodi:namedview>
  <metadata
     id="metadata7">
    <rdf:RDF>
      <cc:Work
         rdf:about="">
        <dc:format>image/svg+xml</dc:format>
        <dc:type
           rdf:resource="http://purl.org/dc/dcmitype/StillImage" />
        <dc:title />
      </cc:Work>
    </rdf:RDF>
  </metadata>
  <g
     inkscape:label="Minutes"
     inkscape:groupmode="layer"
     id="layer1"
     style="display:inline"
     sodipodi:insensitive="true">
    <g
       id="g2991"
       class="second"
       clock="minutes"
       transform="matrix(0,1,-1,0,600,0)">
      <path
         sodipodi:type="arc"
         style="fill:#800000;fill-opacity:1;stroke:none"
         id="path2989"
         sodipodi:cx="300"
         sodipodi:cy="300"
         sodipodi:rx="425"
         sodipodi:ry="425"
         d="m 725,300 a 425,425 0 1 1 -850,0 425,425 0 1 1 850,0 z" />
      <path
         sodipodi:open="true"
         sodipodi:end="3.1415927"
         sodipodi:start="0"
         d="m 725,300 a 425,425 0 1 1 -850,-2e-5"
         sodipodi:ry="425"
         sodipodi:rx="425"
         sodipodi:cy="300"
         sodipodi:cx="300"
         id="path2987"
         style="fill:#000000;fill-opacity:1;stroke:none"
         sodipodi:type="arc" />
    </g>
    <g
       id="g4349"
       clock="minutes"
       transform="matrix(-1,0,0,-1,600,596)">
      <path
         style="fill:#ffff00;fill-opacity:1;stroke:#000000;stroke-width:4;stroke-linecap:butt;stroke-linejoin:miter;stroke-miterlimit:4;stroke-opacity:1;stroke-dasharray:none"
         d="m 274,267.5 0,78.5 8,31 0,100.71453 18,47.55293 18,-47.55293 L 318,377 l 8,-31 0,-78.5 z"
         id="path4337"
         inkscape:connector-curvature="0"
         sodipodi:nodetypes="cccccccccc" />
      <path
         sodipodi:nodetypes="cccccccccc"
         inkscape:connector-curvature="0"
         id="path4295"
         d="M 282,276.38773 282,346 l 8,31 0,98.76999 10,26.87006 10,-26.87006 0,-98.76999 8,-31 0,-69.61227 z"
         style="fill:#800000;fill-opacity:1;stroke:#000000;stroke-width:6;stroke-miterlimit:4;stroke-opacity:1;stroke-dasharray:none" />
    </g>
  </g>
  <g
     inkscape:groupmode="layer"
     id="layer3"
     inkscape:label="Face ring"
     style="display:inline"
     sodipodi:insensitive="true">
    <path
       style="fill:#ffcc00;fill-opacity:1;stroke:#000000;stroke-width:6;stroke-linejoin:round;stroke-miterlimit:4;stroke-opacity:1;stroke-dasharray:none;display:inline"
       d="m 1.34375,-194 c -2.573461,-0.009 -5.1455045,0.001 -7.71875,0.0312 -130.15232,0.90793 -258.72392,56.69687 -348.5625,150.28125 -84.93514,87.416096 -136.19096,207.2961 -138.9375,329.625 -3.43821,116.38899 35.49444,233.52665 108.90625,323.75 C -307.86493,705.66627 -193.4932,772.03643 -70.875,789.0312 48.730662,806.22566 174.39005,778.64917 274.46875,710.875 377.3674,642.09325 452.90349,534.34579 480.9375,413.625 488.57635,381.23728 492.81114,348.05735 493.75,314.78125 L 479.375,300 493.71875,285.25 C 491.18027,202.38366 468.18951,120.12709 425.65625,49 358.64905,-64.718443 244.78059,-150.01801 116,-180.28125 78.546101,-189.32891 39.945665,-193.86608 1.34375,-194 z M -5.0625,-76.21875 c 2.0250572,-0.01687 4.035555,-0.01886 6.0625,0 89.94507,-0.188975 179.55955,33.201419 246.65625,93.03125 69.73551,60.799441 117.20954,148.05345 126.5,240.34375 12.94267,114.98113 -28.78792,235.82694 -113.65625,314.75 -81.80986,77.8597 -199.639824,118.13829 -312.125,101.125 -119.59475,-17.30424 -230.78993,-93.38616 -284.1875,-202.5 -56.61415,-113.71875 -53.99568,-257.02984 13.1875,-365.6875 66.55432,-108.2977518 189.9839,-179.999669 317.5625,-181.0625 z"
       id="path4403"
       inkscape:connector-curvature="0" />
    <path
       style="fill:#800000;fill-opacity:1;stroke:#000000;stroke-width:6;stroke-linejoin:round;stroke-miterlimit:4;stroke-opacity:1;stroke-dasharray:none;display:inline"
       d="m 0,-180 c -265.09668,0 -480,214.90332 -480,480 0,265.09668 214.90332,480 480,480 258.80967,0 469.79517,-204.82383 479.65625,-461.21875 L 461.375,300 479.65625,281.21875 C 469.79517,24.82383 258.80967,-180 0,-180 z m 0,90 C 215.39105,-90 390,84.608948 390,300 390,515.39105 215.39105,690 0,690 -215.39105,690 -390,515.39105 -390,300 -390,84.608948 -215.39105,-90 0,-90 z"
       id="path4401"
       inkscape:connector-curvature="0" />
  </g>
  <g
     inkscape:groupmode="layer"
     id="layer2"
     inkscape:label="Face digits"
     style="display:none"
     sodipodi:insensitive="true">
    <g
       id="g3982"
       clock="none -hours"
       transform="matrix(2,0,0,2,-600,-300)">
      <text
         transform="matrix(0.8660254,0.5,-0.5,0.8660254,363.39746,-9.8076211)"
         xml:space="preserve"
         style="font-size:56px;font-style:normal;font-variant:normal;font-weight:normal;font-stretch:normal;line-height:125%;letter-spacing:0px;word-spacing:0px;fill:#000000;fill-opacity:1;stroke:none;font-family:Boston Traffic;-inkscape-font-specification:Boston Traffic"
         x="306"
         y="335"
         id="text3871"
         sodipodi:linespacing="125%"><tspan
           sodipodi:role="line"
           id="tspan3873"
           x="306"
           y="335">1</tspan></text>
      <text
         sodipodi:linespacing="125%"
         id="text3863"
         y="325"
         x="300"
         style="font-size:56px;font-style:normal;font-variant:normal;font-weight:normal;font-stretch:normal;line-height:125%;letter-spacing:0px;word-spacing:0px;fill:#000000;fill-opacity:1;stroke:none;font-family:Boston Traffic;-inkscape-font-specification:Boston Traffic"
         xml:space="preserve"
         transform="matrix(0.5,0.8660254,-0.8660254,0.5,509.80762,63.39746)"><tspan
           y="325"
           x="300"
           id="tspan3865"
           sodipodi:role="line">2</tspan></text>
      <text
         transform="matrix(0,1,-1,0,600,200)"
         xml:space="preserve"
         style="font-size:56px;font-style:normal;font-variant:normal;font-weight:normal;font-stretch:normal;line-height:125%;letter-spacing:0px;word-spacing:0px;fill:#000000;fill-opacity:1;stroke:none;font-family:Boston Traffic;-inkscape-font-specification:Boston Traffic"
         x="300"
         y="325"
         id="text3839"
         sodipodi:linespacing="125%"><tspan
           sodipodi:role="line"
           id="tspan3841"
           x="300"
           y="325">3</tspan></text>
      <text
         transform="matrix(-0.5,0.8660254,-0.8660254,-0.5,609.80762,363.39746)"
         xml:space="preserve"
         style="font-size:56px;font-style:normal;font-variant:normal;font-weight:normal;font-stretch:normal;line-height:125%;letter-spacing:0px;word-spacing:0px;fill:#000000;fill-opacity:1;stroke:none;font-family:Boston Traffic;-inkscape-font-specification:Boston Traffic"
         x="300"
         y="325"
         id="text3867"
         sodipodi:linespacing="125%"><tspan
           sodipodi:role="line"
           id="tspan3869"
           x="300"
           y="325">4</tspan></text>
      <text
         transform="matrix(-0.8660254,0.5,-0.5,-0.8660254,536.60254,509.80762)"
         xml:space="preserve"
         style="font-size:56px;font-style:normal;font-variant:normal;font-weight:normal;font-stretch:normal;line-height:125%;letter-spacing:0px;word-spacing:0px;fill:#000000;fill-opacity:1;stroke:none;font-family:Boston Traffic;-inkscape-font-specification:Boston Traffic"
         x="300"
         y="325"
         id="text3859"
         sodipodi:linespacing="125%"><tspan
           sodipodi:role="line"
           id="tspan3861"
           x="300"
           y="325">5</tspan></text>
      <text
         sodipodi:linespacing="125%"
         id="text3835"
         y="325"
         x="300"
         style="font-size:56px;font-style:normal;font-variant:normal;font-weight:normal;font-stretch:normal;line-height:125%;letter-spacing:0px;word-spacing:0px;fill:#000000;fill-opacity:1;stroke:none;font-family:Boston Traffic;-inkscape-font-specification:Boston Traffic"
         xml:space="preserve"
         transform="matrix(-1,0,0,-1,400,600)"><tspan
           y="325"
           x="300"
           id="tspan3837"
           sodipodi:role="line">6</tspan></text>
      <text
         sodipodi:linespacing="125%"
         id="text3855"
         y="325"
         x="300"
         style="font-size:56px;font-style:normal;font-variant:normal;font-weight:normal;font-stretch:normal;line-height:125%;letter-spacing:0px;word-spacing:0px;fill:#000000;fill-opacity:1;stroke:none;font-family:Boston Traffic;-inkscape-font-specification:Boston Traffic"
         xml:space="preserve"
         transform="matrix(-0.8660254,-0.5,0.5,-0.8660254,236.60254,609.80762)"><tspan
           y="325"
           x="300"
           id="tspan3857"
           sodipodi:role="line">7</tspan></text>
      <text
         sodipodi:linespacing="125%"
         id="text3851"
         y="325"
         x="300"
         style="font-size:56px;font-style:normal;font-variant:normal;font-weight:normal;font-stretch:normal;line-height:125%;letter-spacing:0px;word-spacing:0px;fill:#000000;fill-opacity:1;stroke:none;font-family:Boston Traffic;-inkscape-font-specification:Boston Traffic"
         xml:space="preserve"
         transform="matrix(-0.5,-0.8660254,0.8660254,-0.5,90.192379,536.60254)"><tspan
           y="325"
           x="300"
           id="tspan3853"
           sodipodi:role="line">8</tspan></text>
      <text
         transform="matrix(0,-1,1,0,0,400)"
         xml:space="preserve"
         style="font-size:56px;font-style:normal;font-variant:normal;font-weight:normal;font-stretch:normal;line-height:125%;letter-spacing:0px;word-spacing:0px;fill:#000000;fill-opacity:1;stroke:none;font-family:Boston Traffic;-inkscape-font-specification:Boston Traffic"
         x="300"
         y="325"
         id="text3831"
         sodipodi:linespacing="125%"><tspan
           sodipodi:role="line"
           id="tspan3833"
           x="300"
           y="325">9</tspan></text>
      <text
         transform="matrix(0.4,-0.69282032,0.69282032,0.4,72.153903,214.64102)"
         xml:space="preserve"
         style="font-size:56px;font-style:normal;font-variant:normal;font-weight:normal;font-stretch:normal;line-height:125%;letter-spacing:0px;word-spacing:0px;fill:#000000;fill-opacity:1;stroke:none;font-family:Boston Traffic;-inkscape-font-specification:Boston Traffic"
         x="300"
         y="325"
         id="text3847"
         sodipodi:linespacing="125%"><tspan
           sodipodi:role="line"
           id="tspan3849"
           x="300"
           y="325">10</tspan></text>
      <text
         transform="matrix(0.69282032,-0.4,0.4,0.69282032,145.35898,112.1539)"
         sodipodi:linespacing="125%"
         id="text3843"
         y="325"
         x="300"
         style="font-size:56px;font-style:normal;font-variant:normal;font-weight:normal;font-stretch:normal;line-height:125%;letter-spacing:0px;word-spacing:0px;fill:#000000;fill-opacity:1;stroke:none;font-family:Boston Traffic;-inkscape-font-specification:Boston Traffic"
         xml:space="preserve"><tspan
           y="325"
           x="300"
           id="tspan3845"
           sodipodi:role="line">11</tspan></text>
      <text
         transform="matrix(0.8,0,0,0.8,260,60)"
         sodipodi:linespacing="125%"
         id="text3814"
         y="325"
         x="300"
         style="font-size:56px;font-style:normal;font-variant:normal;font-weight:normal;font-stretch:normal;line-height:125%;letter-spacing:0px;word-spacing:0px;fill:#000000;fill-opacity:1;stroke:none;font-family:Boston Traffic;-inkscape-font-specification:Boston Traffic"
         xml:space="preserve"><tspan
           y="325"
           x="300"
           id="tspan3816"
           sodipodi:role="line">12</tspan></text>
    </g>
  </g>
  <g
     inkscape:groupmode="layer"
     id="layer4"
     inkscape:label="Face digits path"
     sodipodi:insensitive="true">
    <g
       style="display:inline"
       transform="matrix(2,0,0,2,-600,-300)"
       clock="none -hours"
       id="g3251">
      <g
         transform="matrix(0.8660254,0.5,-0.5,0.8660254,363.39746,-9.8076211)"
         style="font-size:56px;font-style:normal;font-variant:normal;font-weight:normal;font-stretch:normal;line-height:125%;letter-spacing:0px;word-spacing:0px;fill:#000000;fill-opacity:1;stroke:none;font-family:Boston Traffic;-inkscape-font-specification:Boston Traffic"
         id="text3253">
        <path
           d="m 311.27734,285.37109 c -1.29427,1.62245 -2.71614,2.80734 -4.26562,3.55469 -0.23698,2.64327 -0.082,4.93103 0.46484,6.86328 2.53385,-0.87496 3.88281,-0.95699 4.04688,-0.24609 l 0,3.55469 c -0.0911,1.62243 -0.0182,2.96227 0.21875,4.01953 -0.20053,1.27607 -0.20053,2.38805 0,3.33593 l -0.21875,1.17579 c -0.0911,1.62242 -0.0182,2.96226 0.21875,4.01953 l -0.21875,1.17578 0,16.10547 c 0.0729,1.6224 -0.009,2.96224 -0.2461,4.01953 0.10937,0.83854 0.10937,1.54948 0,2.13281 l 0.71094,0 c 0.74739,0.16406 1.3763,0.24609 1.88672,0.24609 1.58593,0.16407 3.0078,-0.15494 4.26562,-0.95703 0.47395,-0.10937 0.86588,-0.10937 1.17579,0 l -0.2461,-1.64062 c -0.0729,-1.27604 0.009,-2.3789 0.2461,-3.3086 l -0.2461,-0.71093 0.2461,-0.71094 0,-0.71094 0,-1.66797 0,-0.95703 -0.2461,-0.46484 c 0.27343,-1.49478 0.35546,-2.76171 0.2461,-3.80078 l 0,-0.6836 0,-1.91406 0,-0.71094 c 0.10936,-1.73175 0.0273,-3.15362 -0.2461,-4.26562 0.0547,-0.41925 0.0547,-0.72915 0,-0.92969 l 0,-0.71094 0,-0.95703 0.2461,-0.92969 0,-0.71093 0,-7.35547 0,-2.59766 0,-1.17578 0,-3.08984 0,-0.95703 0,-4.01954 0,-0.71093 0,-2.84375 c -0.27345,-0.14579 -0.4284,-0.30073 -0.46485,-0.46485 l -4.01953,0 -0.71094,0 -2.84375,0"
           id="path3345"
           inkscape:connector-curvature="0" />
      </g>
      <g
         transform="matrix(0.5,0.8660254,-0.8660254,0.5,509.80762,63.39746)"
         style="font-size:56px;font-style:normal;font-variant:normal;font-weight:normal;font-stretch:normal;line-height:125%;letter-spacing:0px;word-spacing:0px;fill:#000000;fill-opacity:1;stroke:none;font-family:Boston Traffic;-inkscape-font-specification:Boston Traffic"
         id="text3257">
        <path
           d="m 312.60547,275.09766 c -6.3073,1.53129 -9.84375,5.2227 -10.60938,11.07421 l 0.21875,0.71094 0.71094,0.21875 0.68359,0 0.46485,0.46485 0.68359,0.24609 0.71094,0.21875 0.4375,0.21875 0.71094,0.24609 3.00781,1.14844 c 0.2552,-0.61975 0.63801,-1.15751 1.14844,-1.61328 0.21874,-2.151 1.29426,-3.60933 3.22656,-4.375 l 0.24609,-0.71094 0,-0.68359 0,-0.6836 C 314.0091,280.99484 313.92707,280.37504 314,279.71875 l 0,-0.68359 0,-3.00782 -1.39453,-0.92968 m 4.86719,0.68359 c -1.16669,4.2839 -0.40106,7.90239 2.29687,10.85547 0.27342,2.20576 0.2005,4.13805 -0.21875,5.79687 l -0.46484,0.4375 c -0.41929,1.20316 -0.8021,2.13285 -1.14844,2.78907 l -0.92969,1.36718 c -1.76824,1.7318 -3.53647,2.88935 -5.30469,3.47266 -0.82032,1.07554 -1.75,1.76825 -2.78906,2.07812 l 0,0.71094 -1.61328,1.36719 c -0.34636,0.47398 -0.72917,0.85679 -1.14844,1.14844 -0.85677,1.85939 -1.93229,3.32684 -3.22656,4.40234 -0.0365,1.11199 -0.0365,2.03257 0,2.76172 l 0.90234,0.46484 0.71094,0 0.46485,-0.21875 1.36718,0 0.92969,0 c 0.23697,0.0729 0.46484,0.0729 0.68359,0 1.27604,0.34637 2.36067,0.50132 3.25391,0.46485 l 1.14844,-2.78907 3.6914,-3.6914 0.6836,-0.46485 0.71094,-0.68359 0.68359,-0.68359 0.46484,-0.46485 0.6836,-0.71093 c 0.72914,-0.60154 1.34894,-1.05727 1.85937,-1.36719 l 0.46485,-0.71094 0.46484,-0.46484 0.68359,-0.4375 0.46485,-0.46485 0.68359,-0.46484 c 0.69268,-1.31247 1.46742,-2.31508 2.32422,-3.00781 3.9557,-10.35413 1.25778,-17.51819 -8.09375,-21.49219 l -0.68359,0 m -15.01172,39.97656 c -1.20313,3.29949 -1.28516,6.29818 -0.2461,8.9961 l 1.61328,0.24609 0.71094,-0.24609 0.6836,0.24609 c 2.42447,-0.23698 4.42967,-0.23698 6.01562,0 l 1.61328,0 1.14844,0 2.32422,0 0.90234,0 2.54297,0 0.92969,0 0.68359,0.21875 c 2.0781,-0.3099 3.77341,-0.38281 5.08594,-0.21875 0.0729,-0.3099 0.22784,-0.46484 0.46484,-0.46484 l 0,-0.71094 0,-0.90235 0,-0.71093 0.21875,-4.6211 c -0.29169,-1.03905 -0.9844,-1.64973 -2.07812,-1.83203 l -0.90235,0.46485 c -1.58596,0.0729 -2.89845,-0.009 -3.9375,-0.2461 -0.8021,0.20053 -1.41277,0.28256 -1.83203,0.2461 l -0.92968,0 -0.92969,-0.2461 c -1.03908,0.20053 -1.95965,0.20053 -2.76172,0 -1.82293,0.20053 -3.36329,0.12762 -4.62109,-0.21875 l -0.2461,0.46485 -0.68359,-0.2461 c -2.27865,0.20053 -4.20183,0.12762 -5.76953,-0.21875"
           id="path3348"
           inkscape:connector-curvature="0" />
      </g>
      <g
         transform="matrix(0,1,-1,0,600,200)"
         style="font-size:56px;font-style:normal;font-variant:normal;font-weight:normal;font-stretch:normal;line-height:125%;letter-spacing:0px;word-spacing:0px;fill:#000000;fill-opacity:1;stroke:none;font-family:Boston Traffic;-inkscape-font-specification:Boston Traffic"
         id="text3261">
        <path
           d="m 310.69141,275.09766 c -5.5599,2.02348 -8.76823,5.69666 -9.625,11.01953 l 0.71093,0.21875 c 0.92969,0.82035 1.78646,1.44925 2.57032,1.88672 1.40364,0.92972 2.80728,1.39456 4.21093,1.39453 0.67447,-2.91663 2.16015,-4.86715 4.45703,-5.85157 -1e-5,-1.16662 0.15494,-2.17834 0.46485,-3.03515 -0.41929,-1.76818 -0.41929,-3.33589 0,-4.70313 -0.9297,-0.69265 -1.85939,-1.00255 -2.78906,-0.92968 m 5.14062,1.17578 c 0.27342,2.11463 0.20051,3.99223 -0.21875,5.63281 0.27342,0.76567 0.42837,1.46749 0.46484,2.10547 1.36718,0.61983 2.22395,1.55863 2.57032,2.8164 l 0,1.39454 c -0.0365,1.36722 -0.0365,2.543 0,3.52734 -1.25783,2.26045 -3.0534,3.42711 -5.38672,3.5 l -0.46485,5.38672 c 0.0729,1.14846 0.22786,2.08726 0.46485,2.8164 5.26821,0.58336 6.75388,4.49351 4.45703,11.73047 -1.02085,0.6198 -1.8047,1.32163 -2.35156,2.10547 l 0,4.67578 c -0.0365,1.14844 -0.0365,2.08724 0,2.81641 10.28122,-1.0026 13.87236,-7.95702 10.77343,-20.86328 -0.58335,-0.54685 -0.89325,-1.09373 -0.92968,-1.64063 -1.09378,-0.8932 -1.87763,-1.832 -2.35157,-2.8164 1.14842,-1.44008 2.24217,-2.53383 3.28125,-3.28125 2.78904,-10.57288 -0.33726,-17.60022 -9.3789,-21.08203 l -0.92969,1.17578 m -9.37891,33.98828 -0.71093,0 c -1.20313,0.69272 -2.29688,1.08465 -3.28125,1.17578 l -1.39453,0.92969 c -0.27344,5.54167 2.069,9.52474 7.02734,11.94922 l 3.74609,1.17578 c 0.43749,-0.89323 0.7565,-1.75 0.95703,-2.57032 -0.36459,-1.84114 -0.36459,-3.56379 0,-5.16796 l 0,-0.46485 c -2.46094,-2.11457 -3.94662,-4.53905 -4.45703,-7.27344 l -1.42187,-0.21875 -0.46485,0.46485"
           id="path3351"
           inkscape:connector-curvature="0" />
      </g>
      <g
         transform="matrix(-0.5,0.8660254,-0.8660254,-0.5,609.80762,363.39746)"
         style="font-size:56px;font-style:normal;font-variant:normal;font-weight:normal;font-stretch:normal;line-height:125%;letter-spacing:0px;word-spacing:0px;fill:#000000;fill-opacity:1;stroke:none;font-family:Boston Traffic;-inkscape-font-specification:Boston Traffic"
         id="text3265">
        <path
           d="m 319.6875,275.37109 c -0.16408,0.18234 -0.31903,0.26438 -0.46484,0.2461 -0.237,1.25786 -0.85679,2.0326 -1.85938,2.32422 l -0.24609,0.92968 0,1.14844 -0.21875,0.71094 c 0.2005,0.74744 0.2005,1.44926 0,2.10547 0.5104,1.67712 0.66534,3.2266 0.46484,4.64843 l 0,1.64063 0.21875,0.68359 -0.21875,0.71094 c 0.23696,1.25785 0.30988,2.34248 0.21875,3.25391 l 0,5.60547 c -0.0182,1.73179 -0.0182,3.12632 0,4.18359 l -0.21875,0.92969 0,15.14843 c -0.10939,2.00522 0.0456,3.70964 0.46484,5.11329 l 0.46485,0.24609 0.92969,0 0.68359,0 0.92969,0 4.21093,0 0.46485,-0.71094 0,-0.92969 0,-0.92968 0,-0.92969 0,-3.96484 0,-0.6836 0,-2.78906 c 1.07549,-0.30988 2.00518,-0.47395 2.78906,-0.49219 -0.0729,-1.45832 0.082,-2.77082 0.46484,-3.9375 0.0729,-2.58852 -1.01174,-3.68227 -3.2539,-3.28125 l 0,-1.61328 0,-0.71094 0,-0.92968 0,-0.71094 0,-1.14844 0,-0.71094 0,-0.92968 0,-0.6836 0,-4.67578 0,-0.92969 0,-0.92968 0,-0.71094 0,-4.1836 0,-3.03515 0,-0.92969 0,-3.96484 0,-0.6836 0,-2.78906 c -0.27346,-0.16401 -0.42841,-0.31896 -0.46485,-0.46484 l -0.71093,0 -4.64844,-0.2461 m -7,11.42969 -0.21875,1.39453 -0.71094,0.6836 -0.46484,1.17578 -0.92969,0.92968 -0.46484,1.17579 -0.71094,1.14843 -0.46484,1.17578 c -0.89324,1.20316 -1.51303,2.28779 -1.85938,3.25391 l -0.68359,0.92969 c -0.34636,0.91148 -0.81121,1.6133 -1.39453,2.10547 -1.1849,2.51564 -2.27865,4.45705 -3.28125,5.82422 l 0,1.85937 c -0.12761,2.05991 -0.12761,3.76434 0,5.11328 0.27343,0.16408 0.42838,0.32814 0.46484,0.49219 l 2.32422,0 0.71094,0 0.71093,0 0.6836,0 1.64062,0 c 2.07812,-0.23697 3.78254,-0.23697 5.11328,0 l 0.92969,-0.49219 0,-0.92969 0.24609,-0.68359 -0.24609,-5.14062 -1.14844,-0.6836 c -1.22136,0.16408 -2.31511,0.082 -3.28125,-0.24609 l 0.71094,-0.6836 0.24609,-0.46484 0.46485,-0.71094 0.46484,-0.21875 c 0.89322,-1.65883 1.74087,-2.98044 2.54297,-3.96484 l 0,-0.92969 c 0.0365,-0.5833 0.19139,-1.04815 0.46484,-1.39453 l -0.46484,-0.71094 0,-1.39453 0.24609,-0.71094 0,-1.14843 0,-0.71094 0,-0.92969 0,-0.71094 0.21875,-4.64843 -1.14843,-0.71094 -0.71094,0.95703"
           id="path3354"
           inkscape:connector-curvature="0" />
      </g>
      <g
         transform="matrix(-0.8660254,0.5,-0.5,-0.8660254,536.60254,509.80762)"
         style="font-size:56px;font-style:normal;font-variant:normal;font-weight:normal;font-stretch:normal;line-height:125%;letter-spacing:0px;word-spacing:0px;fill:#000000;fill-opacity:1;stroke:none;font-family:Boston Traffic;-inkscape-font-specification:Boston Traffic"
         id="text3269">
        <path
           d="m 323.76172,275.09766 c -0.43752,0.16411 -0.83857,0.24614 -1.20313,0.24609 l -1.17578,0 -7.32812,0 -3.28125,0 -0.71094,0 -0.71094,0.21875 -0.71094,-0.21875 c -2.0599,0.23703 -3.71875,0.30995 -4.97656,0.21875 l 0,1.66797 0.2461,0.46484 c -0.27344,0.87505 -0.35548,1.82296 -0.2461,2.84375 l -0.46484,0.92969 -0.46485,5.19531 -0.24609,0.95703 0,1.64063 -0.46484,3.30859 0,0.71094 -0.2461,3.77344 0.2461,0.95703 0.46484,0.21875 0.46484,0.49219 c 2.60677,1.53127 4.57552,3.10809 5.90625,4.73046 l 0.71094,0 c 1.07551,-1.11195 2.17838,-1.82289 3.3086,-2.13281 l 0.24609,-1.66797 c -0.40105,-1.87757 -0.31902,-3.60934 0.24609,-5.19531 l -0.71093,-1.64062 -0.71094,0.21875 c -0.40105,0.29169 -0.79298,0.45576 -1.17578,0.49218 l 0,-1.88672 0,-0.71093 0.46484,-1.66797 0,-0.71094 c 0.54686,-1.45829 0.78384,-2.78902 0.71094,-3.99219 l 0.71094,-0.49218 1.39453,0 0.95703,-0.21875 1.17578,0 0.95703,0.21875 0.92969,-0.21875 0.95703,0.21875 0.71094,-0.21875 0.71093,0.21875 c 2.11457,-0.34632 3.91925,-0.41923 5.41407,-0.21875 0.67445,-3.11715 0.75648,-5.87886 0.24609,-8.28516 l -2.35156,-0.46484 m -7.79297,19.35937 0,1.88672 -0.24609,4.73047 2.84375,2.59765 0,0.71094 c 0.30987,1.45835 0.38279,2.71617 0.21875,3.77344 0.2005,0.16408 0.28253,0.32814 0.24609,0.49219 l 0,3.77343 c -0.30991,1.25783 -0.46486,2.36069 -0.46484,3.3086 -1.22138,0.6198 -2.08726,1.48568 -2.59766,2.59765 l 0.21875,0.46485 0,1.64062 c -0.14585,1.73178 -0.21877,3.15365 -0.21875,4.26563 7.43748,0.51042 11.29294,-4.29297 11.56641,-14.41016 0.61976,-9.44268 -3.00784,-15.26689 -10.88282,-17.47265 l -0.68359,1.64062 m -7.79297,15.58594 -0.95703,0.49219 -5.90625,2.59765 c 0.54687,5.61459 3.14453,9.55209 7.79297,11.8125 3.29947,1.76823 4.55728,-0.75651 3.77344,-7.57422 -2.31512,-1.60415 -3.41798,-3.64582 -3.3086,-6.125 l -0.71094,-1.20312 -0.21875,0 0.21875,0 -0.46484,0 0.24609,0 -0.46484,0 0.21875,0 -0.21875,0"
           id="path3357"
           inkscape:connector-curvature="0" />
      </g>
      <g
         transform="matrix(-1,0,0,-1,400,600)"
         style="font-size:56px;font-style:normal;font-variant:normal;font-weight:normal;font-stretch:normal;line-height:125%;letter-spacing:0px;word-spacing:0px;fill:#000000;fill-opacity:1;stroke:none;font-family:Boston Traffic;-inkscape-font-specification:Boston Traffic"
         id="text3273">
        <path
           d="m 312.03125,274.82422 c -0.16407,0.27349 -0.31902,0.42843 -0.46484,0.46484 -2.02345,0.67453 -3.6823,1.62245 -4.97657,2.84375 l -0.24609,0.71094 -0.21875,0.46484 -0.49219,0.2461 -0.21875,0.46484 -0.24609,0.49219 -1.42188,2.84375 0,0.71094 -0.46484,1.88671 0,0.71094 -0.71094,3.55469 0,3.0625 c -0.67448,3.4818 -0.75651,6.48049 -0.24609,8.99609 -0.67448,14.12762 2.95312,21.70183 10.88281,22.72266 l 0.24609,-0.71094 0,-0.71094 0,-0.71093 c 0.16405,-2.40625 0.16405,-4.375 0,-5.90625 -2.0599,-1.11197 -3.2448,-2.68879 -3.55468,-4.73047 -0.87501,-4.90363 0.22785,-8.06639 3.30859,-9.48828 l 0.24609,-0.46485 0.2461,-2.13281 c 0.23696,-2.16924 -1e-5,-4.06507 -0.71094,-5.6875 -1.23959,0.91149 -2.18751,0.91149 -2.84375,0 l 0,-0.71094 0,-0.71093 c 0.27343,-2.44268 0.34634,-4.41143 0.21875,-5.90625 0.71093,-2.16923 1.65884,-3.901 2.84375,-5.19532 l 0,-0.71093 0.24609,-0.49219 0,-1.88672 -0.24609,-3.77344 -1.17578,-0.24609 m 5.90625,0.24609 c -0.98439,2.16932 -1.29429,4.29302 -0.92969,6.3711 2.60675,1.7865 4.26561,4.07425 4.97656,6.86328 1.69529,-0.98434 3.27212,-1.61325 4.73047,-1.88672 1.53123,-5.2135 -1.39455,-8.99605 -8.77734,-11.34766 m -0.92969,19.87891 0,1.64062 -0.49219,2.625 c 0.43749,0.82034 0.60155,1.68623 0.49219,2.59766 2.60675,2.24221 3.70962,5.00392 3.3086,8.28516 0.23695,3.46355 -1.02997,5.90626 -3.80079,7.32812 l 0,6.61719 c 0.43749,0.32812 0.7565,0.64713 0.95704,0.95703 6.81768,-2.47916 10.13539,-7.13671 9.95312,-13.97266 0.8932,-8.31247 -2.26956,-13.75387 -9.48828,-16.32422 l -0.92969,0.2461"
           id="path3360"
           inkscape:connector-curvature="0" />
      </g>
      <g
         transform="matrix(-0.8660254,-0.5,0.5,-0.8660254,236.60254,609.80762)"
         style="font-size:56px;font-style:normal;font-variant:normal;font-weight:normal;font-stretch:normal;line-height:125%;letter-spacing:0px;word-spacing:0px;fill:#000000;fill-opacity:1;stroke:none;font-family:Boston Traffic;-inkscape-font-specification:Boston Traffic"
         id="text3277">
        <path
           d="m 301.55859,275.5625 0,0.95703 -0.24609,0.46484 0.24609,0.92969 c -0.1276,2.11463 -0.0547,3.91932 0.21875,5.41406 l 0.95703,0.2461 c 0.54688,-0.16402 1.09375,-0.24605 1.64063,-0.2461 l 1.17578,0.2461 c 1.16666,-0.0364 2.10546,-0.11845 2.81641,-0.2461 l 0.71093,0 0.71094,0.2461 1.88672,-0.2461 c 1.44009,0.12765 2.68879,0.12765 3.74609,0 l 1.42188,0.2461 c -0.40106,1.22139 -0.48309,2.31514 -0.24609,3.28125 l 1.42187,0.49219 c 0.43748,-0.20049 0.82941,-0.28252 1.17578,-0.2461 0.74738,-0.20048 1.37628,-0.20048 1.88672,0 l 1.39453,0 c 0.83852,-0.20048 1.54946,-0.28251 2.13281,-0.24609 0.5104,-1.20309 1.05727,-2.22392 1.64063,-3.0625 l 0,-0.6836 c 0.0729,-3.19005 -0.0821,-5.86062 -0.46484,-8.01171 l -1.17579,0 -1.17578,0 -1.17578,0.24609 -3.0625,0 -0.46484,-0.24609 c -1.29429,0.16411 -2.47007,0.16411 -3.52735,0 l -0.71093,0 -0.71094,0 -0.71094,0 c -1.60418,0.30994 -3.01693,0.30994 -4.23828,0 -2.53386,0.67452 -4.88542,0.67452 -7.05469,0 l -0.21875,0.46484 m 17.39063,14.35547 c -1.64064,0.43753 -3.12632,0.51956 -4.45703,0.24609 -0.27345,0.474 -0.59246,0.78389 -0.95703,0.92969 -0.18231,2.07816 -0.64715,3.80993 -1.39454,5.19531 l -0.24609,1.17578 -0.21875,0.92969 -0.71094,3.30859 -0.24609,0.92969 c -0.38282,0.91148 -0.69272,1.77737 -0.92969,2.59766 l 0,0.92969 c -0.40105,1.29428 -0.63803,2.39715 -0.71094,3.30859 -0.58334,1.53126 -0.89323,3.01694 -0.92968,4.45703 l -0.49219,1.88672 c -0.0365,1.45834 -0.27344,2.71615 -0.71094,3.77344 0,1.13021 -0.0729,2.06901 -0.21875,2.8164 -0.20052,0.91146 -0.28256,1.69532 -0.24609,2.35157 l 0.71094,0.24609 1.17578,-0.24609 0.46484,0.24609 0.71094,0 c 1.76822,0.14583 3.26301,0.14583 4.48437,0 l 1.17578,-1.17578 0,-0.71094 0,-2.81641 0.6836,-4.23828 0,-0.71093 0.24609,-0.95704 0.2461,-1.85937 c 0.0729,-0.91144 0.22784,-1.70441 0.46484,-2.37891 0.43748,-2.49737 0.98436,-4.61196 1.64062,-6.34375 l 0,-0.71093 0.2461,-0.92969 0.46484,-0.71094 c 0.0729,-1.13018 0.30988,-2.15101 0.71094,-3.0625 0.18227,-1.73174 0.64711,-3.1445 1.39453,-4.23828 0.16404,-1.13018 0.48305,-2.06898 0.95703,-2.81641 l -0.46484,-1.17578 c -1.18492,-0.16402 -2.13283,-0.24606 -2.84375,-0.24609"
           id="path3363"
           inkscape:connector-curvature="0" />
      </g>
      <g
         transform="matrix(-0.5,-0.8660254,0.8660254,-0.5,90.192379,536.60254)"
         style="font-size:56px;font-style:normal;font-variant:normal;font-weight:normal;font-stretch:normal;line-height:125%;letter-spacing:0px;word-spacing:0px;fill:#000000;fill-opacity:1;stroke:none;font-family:Boston Traffic;-inkscape-font-specification:Boston Traffic"
         id="text3281">
        <path
           d="m 314.57422,275.80859 -0.71094,0 -4.89453,2.57032 c -4.59375,7.85681 -4.20183,14.86591 1.17578,21.02734 l -0.71094,0.46484 -3.03515,3.71875 c -3.39063,12.70574 -0.0456,19.79688 10.03515,21.27344 1.47655,-3.93749 0.85676,-7.28254 -1.85937,-10.03516 -0.30991,-2.15102 -0.46486,-3.9466 -0.46485,-5.38671 0.30989,-1.44009 0.46483,-2.60676 0.46485,-3.5 1.05727,-1.09373 2.06899,-1.87759 3.03515,-2.35157 0.0365,-0.38279 0.11848,-0.69268 0.2461,-0.92968 l 0,-1.39454 c -0.3646,-1.44007 -0.3646,-2.76169 0,-3.96484 l -0.71094,-1.64062 c -0.89324,-0.38279 -1.59507,-0.92966 -2.10547,-1.64063 l 0,-2.78906 -0.21875,-1.42188 0.21875,-1.14843 c -0.14585,-1.18486 -0.14585,-2.20569 0,-3.0625 l 1.64063,-1.39454 0.46484,-2.57031 c -0.10939,-1.0937 -0.10939,-2.02339 0,-2.78906 -0.16408,-0.89318 -0.16408,-1.74995 0,-2.57031 -0.78387,-0.58329 -1.48569,-0.97521 -2.10547,-1.17578 l -0.46484,0.71093 m 6.53515,-0.71093 c -0.34637,0.54692 -0.72918,1.01176 -1.14843,1.39453 l 0,1.42187 c 0.25519,1.78651 0.25519,3.33598 0,4.64844 0.34633,0.474 0.5742,0.94796 0.68359,1.42187 1.09373,0.30994 1.79555,0.92973 2.10547,1.85938 0.89321,4.32035 0.11847,7.51045 -2.32422,9.57031 l -0.24609,1.64063 -0.21875,1.39453 0.21875,0.71094 -0.21875,0.71093 c 0.34633,1.44013 0.50128,2.67971 0.46484,3.71875 2.40623,2.38804 3.263,5.19533 2.57031,8.42188 -0.43752,2.29688 -1.53127,4.08334 -3.28125,5.35937 0.3828,2.77084 0.30076,5.1862 -0.24609,7.2461 l 0.71094,-0.21875 c 0.54685,0.69271 1.16664,1.0026 1.85937,0.92968 0.74738,-0.41927 1.53123,-0.65624 2.35156,-0.71093 0.61977,-0.54688 1.23956,-0.85677 1.85938,-0.92969 7.67445,-8.02082 7.91142,-15.80467 0.71094,-23.35156 0.38278,-1.13019 1.0846,-1.98696 2.10547,-2.57032 0.23695,-0.82028 0.62887,-1.44919 1.17578,-1.88671 2.78903,-10.70048 -0.25524,-17.62756 -9.13282,-20.78125"
           id="path3366"
           inkscape:connector-curvature="0" />
      </g>
      <g
         transform="matrix(0,-1,1,0,0,400)"
         style="font-size:56px;font-style:normal;font-variant:normal;font-weight:normal;font-stretch:normal;line-height:125%;letter-spacing:0px;word-spacing:0px;fill:#000000;fill-opacity:1;stroke:none;font-family:Boston Traffic;-inkscape-font-specification:Boston Traffic"
         id="text3285">
        <path
           d="m 310.47266,274.82422 c -0.54689,0.27349 -1.09376,0.42843 -1.64063,0.46484 -0.6198,0.61984 -1.31251,1.01177 -2.07812,1.17578 -0.0365,0.38286 -0.1185,0.69276 -0.2461,0.92969 -0.89323,0.85682 -1.66797,1.47661 -2.32422,1.85938 -2.1875,4.79431 -2.97135,9.46097 -2.35156,14 0.47396,7.09117 3.98307,11.13804 10.52734,12.14062 0.58333,-2.75258 0.65624,-5.15883 0.21875,-7.21875 -1.75001,-1.13018 -2.91667,-2.61585 -3.5,-4.45703 l 0,-3.96484 0,-0.6836 0,-2.8164 c 1.0026,-1.65882 2.09635,-2.98043 3.28125,-3.96485 l 0,-0.92969 0.21875,-0.46484 c -0.23699,-0.58329 -0.3099,-1.20308 -0.21875,-1.85937 l 0,-0.71094 0,-3.03516 -1.88671,-0.46484 m 4.67578,0.92969 c 0.34634,0.71098 0.26431,1.4128 -0.2461,2.10546 0.43749,1.58599 0.43749,2.98963 0,4.21094 0.51041,0.3464 0.74738,0.81124 0.71094,1.39453 2.77082,1.75004 3.86457,4.23832 3.28125,7.46485 0.21873,2.95315 -0.87502,4.97659 -3.28125,6.07031 -0.16408,1.16669 -0.24611,2.17841 -0.24609,3.03516 0.27342,1.05731 0.27342,1.987 0,2.78906 l 0.24609,1.42187 c 0.27342,0.27346 0.42837,0.58336 0.46484,0.92969 0.85676,-0.40102 1.71353,-0.638 2.57032,-0.71094 0.92967,6.17971 -0.237,10.77345 -3.5,13.78125 l 0.46484,0.6836 c -0.0365,1.71354 -0.27345,3.11719 -0.71094,4.21093 l 0.71094,1.64063 c 3.29946,-0.98437 5.94269,-2.61588 7.92969,-4.89453 0.58331,-1.80468 1.2031,-3.20833 1.85937,-4.21094 -2e-5,-1.1302 0.16404,-2.14191 0.49219,-3.03516 l 0,-1.17578 0,-0.92968 0.21875,-0.92969 0,-0.71094 0,-1.14844 c 0.30987,-3.00779 0.3919,-5.42315 0.24609,-7.24609 l 0,-1.85938 0,-0.71093 0,-0.6836 0,-0.71093 0,-2.81641 -0.24609,-1.39453 0,-0.6836 -0.21875,-0.71093 0,-2.78907 -0.49219,-0.46484 -0.21875,-2.81641 c -0.237,-0.58329 -0.39195,-1.20308 -0.46484,-1.85937 -0.51044,-0.85673 -0.82034,-1.64058 -0.92969,-2.35156 -2.29689,-2.95308 -4.94012,-4.81245 -7.92969,-5.57813 l -0.71093,0.6836 m -8.85938,36.17578 c -1.53125,1.33074 -3.01693,2.26954 -4.45703,2.8164 l 0,1.85938 c 1.84114,3.66407 4.41145,6.07943 7.71094,7.24609 2.95311,1.44011 4.04686,-0.42838 3.28125,-5.60547 l -0.95703,-0.46484 c -2.02345,-1.74999 -3.50001,-3.70051 -4.42969,-5.85156 l -1.14844,0"
           id="path3327"
           inkscape:connector-curvature="0" />
      </g>
      <g
         transform="matrix(0.4,-0.69282032,0.69282032,0.4,72.153903,214.64102)"
         style="font-size:56px;font-style:normal;font-variant:normal;font-weight:normal;font-stretch:normal;line-height:125%;letter-spacing:0px;word-spacing:0px;fill:#000000;fill-opacity:1;stroke:none;font-family:Boston Traffic;-inkscape-font-specification:Boston Traffic"
         id="text3289">
        <path
           d="m 305.27734,275.37109 c -1.29427,1.62245 -2.71614,2.80734 -4.26562,3.55469 -0.23698,2.64327 -0.082,4.93103 0.46484,6.86328 2.53385,-0.87496 3.88281,-0.95699 4.04688,-0.24609 l 0,3.55469 c -0.0911,1.62243 -0.0182,2.96227 0.21875,4.01953 -0.20053,1.27607 -0.20053,2.38805 0,3.33593 l -0.21875,1.17579 c -0.0911,1.62242 -0.0182,2.96226 0.21875,4.01953 l -0.21875,1.17578 0,16.10547 c 0.0729,1.6224 -0.009,2.96224 -0.2461,4.01953 0.10937,0.83854 0.10937,1.54948 0,2.13281 l 0.71094,0 c 0.74739,0.16406 1.3763,0.24609 1.88672,0.24609 1.58593,0.16407 3.0078,-0.15494 4.26562,-0.95703 0.47395,-0.10937 0.86588,-0.10937 1.17579,0 l -0.2461,-1.64062 c -0.0729,-1.27604 0.009,-2.3789 0.2461,-3.3086 l -0.2461,-0.71093 0.2461,-0.71094 0,-0.71094 0,-1.66797 0,-0.95703 -0.2461,-0.46484 c 0.27343,-1.49478 0.35546,-2.76171 0.2461,-3.80078 l 0,-0.6836 0,-1.91406 0,-0.71094 c 0.10936,-1.73175 0.0273,-3.15362 -0.2461,-4.26562 0.0547,-0.41925 0.0547,-0.72915 0,-0.92969 l 0,-0.71094 0,-0.95703 0.2461,-0.92969 0,-0.71093 0,-7.35547 0,-2.59766 0,-1.17578 0,-3.08984 0,-0.95703 0,-4.01954 0,-0.71093 0,-2.84375 c -0.27345,-0.14579 -0.4284,-0.30073 -0.46485,-0.46485 l -4.01953,0 -0.71094,0 -2.84375,0"
           id="path3330"
           inkscape:connector-curvature="0" />
        <path
           d="m 330.05078,275.37109 c -3.51824,1.16672 -6.25261,3.04432 -8.20312,5.63282 l -0.92969,3.74609 -0.46485,2.35156 0,1.17578 -0.24609,0.6836 c -0.0365,2.07816 -0.0365,3.49092 0,4.23828 l -0.46484,1.88672 0,6.5625 c -0.69271,15.13021 3.06249,23.02344 11.26562,23.67968 l 0,-1.88671 0,-4.67579 0,-1.17578 c -2.42449,-3.40884 -3.20834,-7.23696 -2.35156,-11.48437 l 0,-0.95703 0,-1.17578 0,-1.39454 0,-1.17578 0,-0.71093 0,-1.17579 0,-0.68359 0,-0.95703 0,-0.92969 0,-0.92969 0,-2.35156 0,-0.71094 0,-0.68359 0,-0.71094 0,-1.88672 c -0.0365,-1.44006 0.0456,-2.68876 0.24609,-3.74609 0.61978,-1.02079 1.32161,-1.72261 2.10547,-2.10547 l 0,-1.88672 0,-1.85937 0,-4.70313 -0.95703,0 m 5.16797,1.17578 0,7.27344 c 0.92967,0.89327 1.78644,1.59509 2.57031,2.10547 l 0,0.92969 0,3.0625 c 0.16405,1.56774 0.16405,2.89847 0,3.99219 -2e-5,0.78388 -0.0729,1.40367 -0.21875,1.85937 l 0.21875,1.64063 -0.68359,1.17578 0.68359,0.46484 0,11.26563 -0.21875,1.88671 c 0.10936,0.58335 0.10936,1.13022 0,1.64063 l -0.71094,1.39453 c -1.13022,0.78386 -1.91407,1.72267 -2.35156,2.81641 0.16405,0.23698 0.24608,0.47396 0.2461,0.71093 -0.20054,2.42449 -0.0456,4.52995 0.46484,6.31641 3.24477,-0.49219 5.97914,-1.8138 8.20312,-3.96484 0.58331,-1.8776 1.21222,-3.36328 1.88672,-4.45703 l 0,-0.95704 0.21875,-0.68359 0,-0.95703 0,-0.68359 0.2461,-0.95704 c -0.0365,-0.89321 0.0364,-1.67706 0.21875,-2.35156 l 0,-1.85937 0.24609,-0.46485 0,-1.88672 0,-4.67578 0,-0.95703 0,-0.92969 0,-0.92968 0,-0.95703 0,-0.92969 0,-0.92969 0,-0.71094 0,-0.92968 c -0.27346,-0.87497 -0.3555,-1.65883 -0.24609,-2.35157 -0.30993,-1.56767 -0.46487,-2.8984 -0.46485,-3.99218 -0.30992,-1.56767 -0.46487,-2.8984 -0.46484,-3.99219 -0.34638,-0.82027 -0.50133,-1.52209 -0.46484,-2.10547 -2.22399,-3.2812 -5.04039,-5.23172 -8.44922,-5.85156 l -0.92969,0.92968"
           id="path3332"
           inkscape:connector-curvature="0" />
      </g>
      <g
         transform="matrix(0.69282032,-0.4,0.4,0.69282032,145.35898,112.1539)"
         style="font-size:56px;font-style:normal;font-variant:normal;font-weight:normal;font-stretch:normal;line-height:125%;letter-spacing:0px;word-spacing:0px;fill:#000000;fill-opacity:1;stroke:none;font-family:Boston Traffic;-inkscape-font-specification:Boston Traffic"
         id="text3293">
        <path
           d="m 305.27734,275.37109 c -1.29427,1.62245 -2.71614,2.80734 -4.26562,3.55469 -0.23698,2.64327 -0.082,4.93103 0.46484,6.86328 2.53385,-0.87496 3.88281,-0.95699 4.04688,-0.24609 l 0,3.55469 c -0.0911,1.62243 -0.0182,2.96227 0.21875,4.01953 -0.20053,1.27607 -0.20053,2.38805 0,3.33593 l -0.21875,1.17579 c -0.0911,1.62242 -0.0182,2.96226 0.21875,4.01953 l -0.21875,1.17578 0,16.10547 c 0.0729,1.6224 -0.009,2.96224 -0.2461,4.01953 0.10937,0.83854 0.10937,1.54948 0,2.13281 l 0.71094,0 c 0.74739,0.16406 1.3763,0.24609 1.88672,0.24609 1.58593,0.16407 3.0078,-0.15494 4.26562,-0.95703 0.47395,-0.10937 0.86588,-0.10937 1.17579,0 l -0.2461,-1.64062 c -0.0729,-1.27604 0.009,-2.3789 0.2461,-3.3086 l -0.2461,-0.71093 0.2461,-0.71094 0,-0.71094 0,-1.66797 0,-0.95703 -0.2461,-0.46484 c 0.27343,-1.49478 0.35546,-2.76171 0.2461,-3.80078 l 0,-0.6836 0,-1.91406 0,-0.71094 c 0.10936,-1.73175 0.0273,-3.15362 -0.2461,-4.26562 0.0547,-0.41925 0.0547,-0.72915 0,-0.92969 l 0,-0.71094 0,-0.95703 0.2461,-0.92969 0,-0.71093 0,-7.35547 0,-2.59766 0,-1.17578 0,-3.08984 0,-0.95703 0,-4.01954 0,-0.71093 0,-2.84375 c -0.27345,-0.14579 -0.4284,-0.30073 -0.46485,-0.46485 l -4.01953,0 -0.71094,0 -2.84375,0"
           id="path3335"
           inkscape:connector-curvature="0" />
        <path
           d="m 323.32422,275.37109 c -1.29428,1.62245 -2.71615,2.80734 -4.26563,3.55469 -0.23698,2.64327 -0.082,4.93103 0.46485,6.86328 2.53385,-0.87496 3.8828,-0.95699 4.04687,-0.24609 l 0,3.55469 c -0.0912,1.62243 -0.0182,2.96227 0.21875,4.01953 -0.20052,1.27607 -0.20052,2.38805 0,3.33593 l -0.21875,1.17579 c -0.0912,1.62242 -0.0182,2.96226 0.21875,4.01953 l -0.21875,1.17578 0,16.10547 c 0.0729,1.6224 -0.009,2.96224 -0.24609,4.01953 0.10937,0.83854 0.10937,1.54948 0,2.13281 l 0.71094,0 c 0.74739,0.16406 1.37629,0.24609 1.88671,0.24609 1.58593,0.16407 3.00781,-0.15494 4.26563,-0.95703 0.47395,-0.10937 0.86587,-0.10937 1.17578,0 l -0.24609,-1.64062 c -0.0729,-1.27604 0.009,-2.3789 0.24609,-3.3086 l -0.24609,-0.71093 0.24609,-0.71094 0,-0.71094 0,-1.66797 0,-0.95703 -0.24609,-0.46484 c 0.27342,-1.49478 0.35545,-2.76171 0.24609,-3.80078 l 0,-0.6836 0,-1.91406 0,-0.71094 c 0.10936,-1.73175 0.0273,-3.15362 -0.24609,-4.26562 0.0547,-0.41925 0.0547,-0.72915 0,-0.92969 l 0,-0.71094 0,-0.95703 0.24609,-0.92969 0,-0.71093 0,-7.35547 0,-2.59766 0,-1.17578 0,-3.08984 0,-0.95703 0,-4.01954 0,-0.71093 0,-2.84375 c -0.27345,-0.14579 -0.4284,-0.30073 -0.46484,-0.46485 l -4.01953,0 -0.71094,0 -2.84375,0"
           id="path3337"
           inkscape:connector-curvature="0" />
      </g>
      <g
         transform="matrix(0.8,0,0,0.8,260,60)"
         style="font-size:56px;font-style:normal;font-variant:normal;font-weight:normal;font-stretch:normal;line-height:125%;letter-spacing:0px;word-spacing:0px;fill:#000000;fill-opacity:1;stroke:none;font-family:Boston Traffic;-inkscape-font-specification:Boston Traffic"
         id="text3297">
        <path
           d="m 305.27734,275.37109 c -1.29427,1.62245 -2.71614,2.80734 -4.26562,3.55469 -0.23698,2.64327 -0.082,4.93103 0.46484,6.86328 2.53385,-0.87496 3.88281,-0.95699 4.04688,-0.24609 l 0,3.55469 c -0.0911,1.62243 -0.0182,2.96227 0.21875,4.01953 -0.20053,1.27607 -0.20053,2.38805 0,3.33593 l -0.21875,1.17579 c -0.0911,1.62242 -0.0182,2.96226 0.21875,4.01953 l -0.21875,1.17578 0,16.10547 c 0.0729,1.6224 -0.009,2.96224 -0.2461,4.01953 0.10937,0.83854 0.10937,1.54948 0,2.13281 l 0.71094,0 c 0.74739,0.16406 1.3763,0.24609 1.88672,0.24609 1.58593,0.16407 3.0078,-0.15494 4.26562,-0.95703 0.47395,-0.10937 0.86588,-0.10937 1.17579,0 l -0.2461,-1.64062 c -0.0729,-1.27604 0.009,-2.3789 0.2461,-3.3086 l -0.2461,-0.71093 0.2461,-0.71094 0,-0.71094 0,-1.66797 0,-0.95703 -0.2461,-0.46484 c 0.27343,-1.49478 0.35546,-2.76171 0.2461,-3.80078 l 0,-0.6836 0,-1.91406 0,-0.71094 c 0.10936,-1.73175 0.0273,-3.15362 -0.2461,-4.26562 0.0547,-0.41925 0.0547,-0.72915 0,-0.92969 l 0,-0.71094 0,-0.95703 0.2461,-0.92969 0,-0.71093 0,-7.35547 0,-2.59766 0,-1.17578 0,-3.08984 0,-0.95703 0,-4.01954 0,-0.71093 0,-2.84375 c -0.27345,-0.14579 -0.4284,-0.30073 -0.46485,-0.46485 l -4.01953,0 -0.71094,0 -2.84375,0"
           id="path3340"
           inkscape:connector-curvature="0" />
        <path
           d="m 330.65234,275.09766 c -6.30729,1.53129 -9.84375,5.2227 -10.60937,11.07421 l 0.21875,0.71094 0.71094,0.21875 0.68359,0 0.46484,0.46485 0.6836,0.24609 0.71093,0.21875 0.4375,0.21875 0.71094,0.24609 3.00781,1.14844 c 0.2552,-0.61975 0.63802,-1.15751 1.14844,-1.61328 0.21874,-2.151 1.29426,-3.60933 3.22656,-4.375 l 0.2461,-0.71094 0,-0.68359 0,-0.6836 c -0.23699,-0.58328 -0.31903,-1.20308 -0.2461,-1.85937 l 0,-0.68359 0,-3.00782 -1.39453,-0.92968 m 4.86719,0.68359 c -1.16668,4.2839 -0.40106,7.90239 2.29688,10.85547 0.27341,2.20576 0.2005,4.13805 -0.21875,5.79687 l -0.46485,0.4375 c -0.41929,1.20316 -0.8021,2.13285 -1.14844,2.78907 l -0.92968,1.36718 c -1.76825,1.7318 -3.53647,2.88935 -5.30469,3.47266 -0.82032,1.07554 -1.75001,1.76825 -2.78906,2.07812 l 0,0.71094 -1.61328,1.36719 c -0.34636,0.47398 -0.72918,0.85679 -1.14844,1.14844 -0.85678,1.85939 -1.9323,3.32684 -3.22656,4.40234 -0.0365,1.11199 -0.0365,2.03257 0,2.76172 l 0.90234,0.46484 0.71094,0 0.46484,-0.21875 1.36719,0 0.92969,0 c 0.23697,0.0729 0.46483,0.0729 0.68359,0 1.27603,0.34637 2.36067,0.50132 3.25391,0.46485 l 1.14843,-2.78907 3.69141,-3.6914 0.68359,-0.46485 0.71094,-0.68359 0.68359,-0.68359 0.46485,-0.46485 0.68359,-0.71093 c 0.72915,-0.60154 1.34894,-1.05727 1.85938,-1.36719 l 0.46484,-0.71094 0.46484,-0.46484 0.6836,-0.4375 0.46484,-0.46485 0.6836,-0.46484 c 0.69268,-1.31247 1.46742,-2.31508 2.32421,-3.00781 3.9557,-10.35413 1.25779,-17.51819 -8.09375,-21.49219 l -0.68359,0 m -15.01172,39.97656 c -1.20312,3.29949 -1.28515,6.29818 -0.24609,8.9961 L 321.875,325 322.58594,324.75391 323.26953,325 c 2.42447,-0.23698 4.42968,-0.23698 6.01563,0 l 1.61328,0 1.14843,0 2.32422,0 0.90235,0 2.54297,0 0.92968,0 0.6836,0.21875 c 2.0781,-0.3099 3.77341,-0.38281 5.08593,-0.21875 0.0729,-0.3099 0.22784,-0.46484 0.46485,-0.46484 l 0,-0.71094 0,-0.90235 0,-0.71093 0.21875,-4.6211 c -0.29169,-1.03905 -0.9844,-1.64973 -2.07813,-1.83203 l -0.90234,0.46485 c -1.58596,0.0729 -2.89846,-0.009 -3.9375,-0.2461 -0.8021,0.20053 -1.41278,0.28256 -1.83203,0.2461 l -0.92969,0 -0.92969,-0.2461 c -1.03907,0.20053 -1.95965,0.20053 -2.76172,0 -1.82292,0.20053 -3.36329,0.12762 -4.62109,-0.21875 l -0.24609,0.46485 -0.6836,-0.2461 c -2.27865,0.20053 -4.20182,0.12762 -5.76953,-0.21875"
           id="path3342"
           inkscape:connector-curvature="0" />
      </g>
    </g>
  </g>
  <g
     inkscape:groupmode="layer"
     id="layer5"
     inkscape:label="Seconds">
    <g
       id="g4493"
       clock=""
       transform="translate(-300,0)">
      <rect
         clock="seconds"
         y="300"
         x="295"
         height="12"
         width="10"
         id="rect4483"
         style="fill:none;stroke:#000000;stroke-width:4;stroke-linecap:butt;stroke-linejoin:miter;stroke-miterlimit:4;stroke-opacity:1;stroke-dasharray:none"
         transform="translate(0,-389)" />
    </g>
  </g>
</svg>
